<svg id="SvgjsSvg1001" width="288" height="288" xmlns="http://www.w3.org/2000/svg" version="1.1" xmlns:xlink="http://www.w3.org/1999/xlink" xmlns:svgjs="http://svgjs.com/svgjs"><defs id="SvgjsDefs1002"></defs><g id="SvgjsG1008" transform="matrix(1,0,0,1,0,0)"><svg xmlns="http://www.w3.org/2000/svg" width="288" height="288" viewBox="0 0 350 198"><g transform="matrix(.1 0 0 -.1 0 198)" fill="#ffffff" class="color000 svgShape"><path d="m867 1732c-21-23-22-70-2-92 14-15 3-34-115-195-108-149-137-183-172-200-91-43-89-149 3-188 34-14 328-325 329-347 0-9-117-132-259-274-168-167-258-263-254-272 10-27 41-36 57-17 8 10 134 140 280 288 146 149 266 276 266 284 0 7-72 89-160 182l-160 169 20 33c25 40 25 64 1 102l-18 31 117 162c64 89 119 164 121 167 3 2 3-24 1-58-4-72 22-133 75-174l31-24 94 127c51 70 114 156 141 191 26 35 47 67 47 71s-21 17-45 30c-64 32-142 30-205-4l-48-26-35 26c-40 30-87 34-110 8zm-212-537c14-13 25-31 25-40 0-21-44-65-65-65s-65 44-65 65 44 65 65 65c9 0 27-11 40-25z" fill="#ffffff" class="color000 svgShape"></path><path d="M1191 1511c-22-33-41-61-41-64s12-9 28-15c50-17 101 17 102 68 0 26-25 70-39 70-5 0-27-27-50-59zM1386 1113c-8-19-6-254 1-284 5-17 15-19 100-19s94 2 91 18c-3 14-16 17-81 20l-77 3v139c0 113-3 140-14 140-8 0-17-8-20-17zM1114 1102c-35-22-64-84-64-135 1-49 34-113 69-131 121-63 252 68 197 197-23 54-59 80-118 84-40 3-61-1-84-15zm120-23c25-12 56-72 56-109 0-63-48-120-101-120-33 0-79 29-89 56-13 33-13 110 0 134 22 42 87 60 134 39zM1543 1104c11-38 114-263 126-278 16-19 31-21 31-5 0 6 27 74 60 150s60 141 60 144c0 4-7 5-16 3-14-3-107-201-116-245-2-9-28 41-59 113-38 87-62 130-74 133-13 2-16-2-12-15zM1909 1103c-79-49-87-184-15-250 30-28 43-33 86-33s55 5 88 34c37 34 37 35 37 116s0 82-37 116c-32 29-45 34-85 34-27 0-60-8-74-17zm136-37c28-28 40-81 30-132-13-70-85-106-146-74-63 34-64 183-2 219 33 19 92 13 118-13zM2174 1107c-2-7-3-73-2-147 3-123 5-135 22-138 26-5 36 15 36 78v54l68-67c37-37 75-67 85-67 33 0 17 36-43 95l-60 59 61 62c58 59 68 84 32 84-8 0-44-30-79-67l-63-68-1 52c0 28-3 58-6 67-7 19-43 21-50 3zM2454 1107c-2-7-3-74-2-148 3-129 4-134 25-137s22-1 25 125c4 160 2 173-23 173-11 0-22-6-25-13zM2544 1106c-10-25 5-36 51-36h44l3-122c3-118 4-123 25-126 29-4 37 36 31 157l-4 90 51 3c42 3 50 6 50 23 0 19-8 20-123 23-101 2-123 0-128-12z" fill="#ffffff" class="color000 svgShape"></path></g></svg></g></svg>